# Blender v2.91.2 OBJ File: ''
# www.blender.org
mtllib Cloud Blob.mtl
o Small_Blolb_Cloud_Mesh
v -0.646866 -0.632723 0.640910
v -0.768954 -0.233712 0.747711
v -0.757313 -0.744374 0.251431
v -1.046172 -0.260408 0.272235
v -0.250677 -0.756128 0.762142
v -0.277258 -0.256110 1.033321
v -0.260042 -1.027932 0.271067
v -0.885803 0.371082 0.842278
v -0.830396 0.973883 0.775950
v -0.645166 1.267735 0.574833
v -1.227701 0.367106 0.296680
v -1.167138 1.005054 0.277574
v -0.747415 1.343615 0.273321
v -0.296395 0.370066 1.062464
v -0.271105 0.924067 0.857816
v -0.258888 1.242303 0.522565
v -0.341747 1.345301 0.219584
v -0.757490 -0.749604 -0.287513
v -1.018318 -0.256910 -0.300675
v -0.635707 -0.631320 -0.657807
v -0.744400 -0.237031 -0.756492
v -0.255897 -1.019843 -0.311221
v -0.237269 -0.737094 -0.766700
v -0.266004 -0.261448 -1.035023
v -1.090189 0.359997 -0.309091
v -0.877379 0.983288 -0.303467
v -0.686453 1.282912 -0.056012
v -0.755542 0.308038 -0.748610
v -0.647995 0.709143 -0.625463
v -0.304090 1.080776 -0.364386
v -0.340086 1.277864 -0.063787
v -0.269360 0.324410 -1.009542
v -0.251029 0.775672 -0.733030
v 0.317054 -0.747264 0.750415
v 0.327971 -0.258623 1.015684
v 0.374238 -1.009358 0.268974
v 0.748602 -0.632318 0.645898
v 0.839552 -0.238836 0.796470
v 0.984098 -0.766085 0.285478
v 1.220505 -0.266440 0.513487
v 1.283017 -0.608350 0.127651
v 1.432280 -0.296956 0.188581
v 0.313782 0.336397 0.997225
v 0.257741 0.803370 0.716768
v 0.215543 1.086288 0.279014
v -0.061946 1.231524 0.138996
v 0.793652 0.292515 0.732879
v 0.643168 0.662546 0.612064
v 1.140135 0.292934 0.293101
v 0.745830 0.763589 0.241585
v 1.392152 0.063911 0.144188
v 0.372095 -0.987892 -0.303698
v 0.315398 -0.728763 -0.759660
v 0.326231 -0.257034 -1.014625
v 0.948633 -0.719655 -0.283870
v 1.147544 -0.262418 -0.455812
v 0.713828 -0.595883 -0.629740
v 0.791044 -0.226453 -0.757212
v 1.264481 -0.597595 -0.124261
v 1.405380 -0.292276 -0.183915
v 0.214125 1.062147 -0.254965
v -0.063539 1.196902 -0.043750
v 0.317180 0.321747 -0.998382
v 0.268020 0.781378 -0.731543
v 1.111259 0.276886 -0.302166
v 0.743618 0.755623 -0.263833
v 0.772640 0.280449 -0.727521
v 0.643438 0.651480 -0.627305
v 1.353215 0.051366 -0.140787
vn -0.6904 -0.6942 0.2032
vn -0.5802 -0.5762 0.5755
vn -0.6496 -0.3119 0.6934
vn -0.9139 -0.3533 0.1998
vn -0.2055 -0.6911 0.6929
vn -0.1935 -0.2636 0.9450
vn -0.2189 -0.9498 0.2233
vn -0.6287 -0.0074 0.7776
vn -0.9865 -0.0320 0.1604
vn -0.4863 0.4498 0.7490
vn -0.8848 0.4580 0.0852
vn -0.1919 0.8255 0.5308
vn -0.3640 0.9296 0.0580
vn -0.1023 0.1360 0.9854
vn 0.1036 0.5356 0.8381
vn 0.2462 0.8485 0.4683
vn 0.1785 0.9837 0.0194
vn -0.6879 -0.6868 -0.2348
vn -0.9082 -0.2923 -0.2996
vn -0.5680 -0.5615 -0.6017
vn -0.6696 -0.2098 -0.7124
vn -0.2093 -0.9431 -0.2582
vn -0.1886 -0.6804 -0.7082
vn -0.2209 -0.2169 -0.9509
vn -0.9004 0.0624 -0.4305
vn -0.6077 0.5635 -0.5596
vn -0.2950 0.8600 -0.4165
vn -0.6332 0.1696 -0.7551
vn -0.4614 0.4955 -0.7359
vn 0.0840 0.9144 -0.3960
vn -0.0298 0.8004 -0.5986
vn -0.2167 0.2588 -0.9413
vn -0.1301 0.6419 -0.7556
vn 0.1770 -0.6863 0.7054
vn 0.2279 -0.2145 0.9497
vn 0.2076 -0.9525 0.2228
vn 0.4220 -0.6047 0.6754
vn 0.5495 -0.1404 0.8235
vn 0.5025 -0.8051 0.3150
vn 0.7220 -0.1207 0.6813
vn 0.7133 -0.6782 0.1767
vn 0.9423 -0.1516 0.2984
vn 0.2934 0.2475 0.9234
vn 0.3883 0.6282 0.6742
vn 0.4652 0.8571 0.2209
vn 0.3889 0.9212 -0.0143
vn 0.5908 0.3453 0.7291
vn 0.5441 0.6171 0.5683
vn 0.7777 0.5305 0.3372
vn 0.6445 0.7394 0.1944
vn 0.8844 0.4235 0.1960
vn 0.2266 -0.9312 -0.2854
vn 0.2191 -0.6678 -0.7113
vn 0.2552 -0.2110 -0.9436
vn 0.5061 -0.7608 -0.4061
vn 0.4875 -0.5643 -0.6663
vn 0.5935 -0.1549 -0.7898
vn 0.6891 -0.1381 -0.7114
vn 0.6754 -0.6618 -0.3252
vn 0.8889 -0.1478 -0.4335
vn 0.3119 0.9136 -0.2608
vn 0.3436 0.8855 -0.3127
vn 0.2536 0.2691 -0.9291
vn 0.2442 0.6878 -0.6835
vn 0.6413 0.7308 -0.2336
vn 0.7776 0.4816 -0.4042
vn 0.6252 0.2894 -0.7248
vn 0.5528 0.6029 -0.5752
vn 0.8484 0.4074 -0.3379
usemtl None
s 1
f 3//1 1//2 2//3 4//4
f 2//3 1//2 5//5 6//6
f 7//7 5//5 1//2 3//1
f 4//4 2//3 8//8 11//9
f 11//9 8//8 9//10 12//11
f 12//11 9//10 10//12 13//13
f 8//8 2//3 6//6 14//14
f 9//10 8//8 14//14 15//15
f 10//12 9//10 15//15 16//16
f 13//13 10//12 16//16 17//17
f 18//18 3//1 4//4 19//19
f 20//20 18//18 19//19 21//21
f 22//22 7//7 3//1 18//18
f 23//23 22//22 18//18 20//20
f 24//24 23//23 20//20 21//21
f 19//19 4//4 11//9 25//25
f 12//11 26//26 25//25 11//9
f 26//26 12//11 13//13 27//27
f 21//21 19//19 25//25 28//28
f 28//28 25//25 26//26 29//29
f 31//30 30//31 26//26 27//27
f 27//27 13//13 17//17 31//30
f 32//32 24//24 21//21 28//28
f 33//33 32//32 28//28 29//29
f 29//29 26//26 30//31 33//33
f 6//6 5//5 34//34 35//35
f 36//36 34//34 5//5 7//7
f 35//35 34//34 37//37 38//38
f 39//39 37//37 34//34 36//36
f 40//40 38//38 37//37 39//39
f 40//40 39//39 41//41 42//42
f 14//14 6//6 35//35 43//43
f 15//15 14//14 43//43 44//44
f 16//16 15//15 44//44 45//45
f 17//17 16//16 45//45 46//46
f 43//43 35//35 38//38 47//47
f 44//44 43//43 47//47 48//48
f 49//49 47//47 38//38 40//40
f 50//50 48//48 47//47 49//49
f 45//45 44//44 48//48 50//50
f 49//49 40//40 42//42 51//51
f 52//52 36//36 7//7 22//22
f 53//53 52//52 22//22 23//23
f 54//54 53//53 23//23 24//24
f 55//55 39//39 36//36 52//52
f 57//56 55//55 52//52 53//53
f 58//57 56//58 55//55 57//56
f 58//57 57//56 53//53 54//54
f 59//59 41//41 39//39 55//55
f 60//60 42//42 41//41 59//59
f 60//60 59//59 55//55 56//58
f 62//61 46//46 45//45 61//62
f 62//61 61//62 30//31 31//30
f 31//30 17//17 46//46 62//61
f 63//63 54//54 24//24 32//32
f 64//64 63//63 32//32 33//33
f 33//33 30//31 61//62 64//64
f 66//65 50//50 49//49 65//66
f 61//62 45//45 50//50 66//65
f 67//67 65//66 56//58 58//57
f 67//67 58//57 54//54 63//63
f 68//68 66//65 65//66 67//67
f 68//68 67//67 63//63 64//64
f 64//64 61//62 66//65 68//68
f 69//69 51//51 42//42 60//60
f 69//69 60//60 56//58 65//66
f 65//66 49//49 51//51 69//69
