# Blender v2.91.2 OBJ File: 'Dining Table.blend'
# www.blender.org
mtllib Gnome Doll.mtl
o Gnome_Doll_Cube.008
v -0.015903 -0.015903 0.009872
v -0.013224 0.064891 0.008209
v -0.015903 -0.015903 -0.009872
v -0.013224 0.064891 -0.008209
v 0.015903 -0.015903 0.009872
v 0.013224 0.064891 0.008209
v 0.015903 -0.015903 -0.009872
v 0.013224 0.064891 -0.008209
v -0.015903 0.013448 0.009872
v -0.009263 0.037408 0.008851
v -0.008058 0.037408 -0.008851
v -0.015903 0.013448 -0.009872
v 0.008058 0.037408 -0.008851
v 0.015903 0.013448 -0.009872
v 0.009263 0.037408 0.008851
v 0.015903 0.013448 0.009872
v -0.015903 0.041674 0.009872
v -0.015903 0.041674 -0.009872
v 0.015903 0.041674 -0.009872
v 0.015903 0.041674 0.009872
v -0.015903 0.032916 0.009872
v -0.015903 0.032916 -0.009872
v 0.015903 0.032916 -0.009872
v 0.015903 0.032916 0.009872
v 0.001450 -0.015903 -0.009872
v -0.001450 -0.015903 -0.009872
v -0.001206 0.064891 -0.008209
v 0.001206 0.064891 -0.008209
v -0.001450 -0.015903 0.009872
v 0.001450 -0.015903 0.009872
v 0.001206 0.064891 0.008209
v -0.001206 0.064891 0.008209
v 0.001450 0.013448 0.009872
v -0.001450 0.013448 0.009872
v 0.000845 0.037408 0.008851
v -0.000845 0.037408 0.008851
v -0.001450 0.013448 -0.009872
v 0.001450 0.013448 -0.009872
v -0.000735 0.037408 -0.008851
v 0.000735 0.037408 -0.008851
v 0.001450 0.041674 0.009872
v -0.001450 0.041674 0.009872
v -0.001450 0.041674 -0.009872
v 0.001450 0.041674 -0.009872
v -0.001450 0.032916 -0.009872
v 0.001450 0.032916 -0.009872
v 0.001450 0.032916 0.009872
v -0.001450 0.032916 0.009872
v -0.015903 0.061038 0.009872
v -0.015903 0.061038 -0.009872
v 0.015903 0.061038 -0.009872
v 0.015903 0.061038 0.009872
v 0.001450 0.061038 0.009872
v -0.001450 0.061038 0.009872
v -0.001450 0.061038 -0.009872
v 0.001450 0.061038 -0.009872
v -0.015903 -0.010326 -0.009872
v -0.015903 -0.010326 0.009872
v -0.001450 -0.010326 -0.009872
v -0.001450 -0.010326 0.009872
v 0.015903 -0.010326 -0.009872
v 0.015903 -0.010326 0.009872
v 0.001450 -0.010326 -0.009872
v 0.001450 -0.010326 0.009872
v 0.015903 -0.010326 0.012656
v 0.015903 -0.015903 0.012656
v 0.001450 -0.015903 0.012656
v -0.015903 -0.015903 0.012656
v -0.001450 -0.015903 0.012656
v 0.001450 -0.010326 0.012656
v -0.001450 -0.010326 0.012656
v -0.015903 -0.010326 0.012656
v 0.015862 0.002287 0.004261
v 0.015862 0.030200 0.004261
v 0.015862 0.002287 -0.004261
v 0.015862 0.030200 -0.004261
v 0.024384 0.002287 0.004261
v 0.024384 0.030200 0.004261
v 0.024384 0.002287 -0.004261
v 0.024384 0.030200 -0.004261
v 0.015862 0.020936 0.004261
v 0.015862 0.020936 -0.004261
v 0.024384 0.020936 -0.004261
v 0.024384 0.020936 0.004261
v 0.022680 0.002287 -0.004261
v 0.020975 0.002287 -0.004261
v 0.019271 0.002287 -0.004261
v 0.017567 0.002287 -0.004261
v 0.017567 0.030200 -0.004261
v 0.019271 0.030200 -0.004261
v 0.020975 0.030200 -0.004261
v 0.022680 0.030200 -0.004261
v 0.017567 0.002287 0.004261
v 0.019271 0.002287 0.004261
v 0.020975 0.002287 0.004261
v 0.022680 0.002287 0.004261
v 0.022680 0.030200 0.004261
v 0.020975 0.030200 0.004261
v 0.019271 0.030200 0.004261
v 0.017567 0.030200 0.004261
v 0.022680 0.020936 0.004261
v 0.020975 0.020936 0.004261
v 0.019271 0.020936 0.004261
v 0.017567 0.020936 0.004261
v 0.017567 0.020936 -0.004261
v 0.019271 0.020936 -0.004261
v 0.020975 0.020936 -0.004261
v 0.022680 0.020936 -0.004261
v 0.015862 0.006099 -0.004261
v 0.024384 0.006099 -0.004261
v 0.024384 0.006099 0.004261
v 0.015862 0.006099 0.004261
v 0.017567 0.006099 -0.004261
v 0.019271 0.006099 -0.004261
v 0.020975 0.006099 -0.004261
v 0.022680 0.006099 -0.004261
v 0.022680 0.006099 0.004261
v 0.020975 0.006099 0.004261
v 0.019271 0.006099 0.004261
v 0.017567 0.006099 0.004261
v -0.015862 0.002287 0.004261
v -0.015862 0.030200 0.004261
v -0.015862 0.002287 -0.004261
v -0.015862 0.030200 -0.004261
v -0.024384 0.002287 0.004261
v -0.024384 0.030200 0.004261
v -0.024384 0.002287 -0.004261
v -0.024384 0.030200 -0.004261
v -0.015862 0.020936 0.004261
v -0.015862 0.020936 -0.004261
v -0.024384 0.020936 -0.004261
v -0.024384 0.020936 0.004261
v -0.022680 0.002287 -0.004261
v -0.020975 0.002287 -0.004261
v -0.019271 0.002287 -0.004261
v -0.017567 0.002287 -0.004261
v -0.017567 0.030200 -0.004261
v -0.019271 0.030200 -0.004261
v -0.020975 0.030200 -0.004261
v -0.022680 0.030200 -0.004261
v -0.017567 0.002287 0.004261
v -0.019271 0.002287 0.004261
v -0.020975 0.002287 0.004261
v -0.022680 0.002287 0.004261
v -0.022680 0.030200 0.004261
v -0.020975 0.030200 0.004261
v -0.019271 0.030200 0.004261
v -0.017567 0.030200 0.004261
v -0.022680 0.020936 0.004261
v -0.020975 0.020936 0.004261
v -0.019271 0.020936 0.004261
v -0.017567 0.020936 0.004261
v -0.017567 0.020936 -0.004261
v -0.019271 0.020936 -0.004261
v -0.020975 0.020936 -0.004261
v -0.022680 0.020936 -0.004261
v -0.015862 0.006099 -0.004261
v -0.024384 0.006099 -0.004261
v -0.024384 0.006099 0.004261
v -0.015862 0.006099 0.004261
v -0.017567 0.006099 -0.004261
v -0.019271 0.006099 -0.004261
v -0.020975 0.006099 -0.004261
v -0.022680 0.006099 -0.004261
v -0.022680 0.006099 0.004261
v -0.020975 0.006099 0.004261
v -0.019271 0.006099 0.004261
v -0.017567 0.006099 0.004261
vt 0.616744 0.000000
vt 0.625000 0.000000
vt 0.625000 0.250000
vt 0.616744 0.250000
vt 0.616744 0.416667
vt 0.625000 0.416667
vt 0.625000 0.500000
vt 0.616744 0.500000
vt 0.625000 0.750000
vt 0.616744 0.750000
vt 0.616744 0.916667
vt 0.625000 0.916667
vt 0.625000 1.000000
vt 0.616744 1.000000
vt 0.291667 0.500000
vt 0.375000 0.500000
vt 0.375000 0.750000
vt 0.291667 0.750000
vt 0.791667 0.500000
vt 0.875000 0.500000
vt 0.875000 0.750000
vt 0.791667 0.750000
vt 0.426042 0.916667
vt 0.477083 0.916667
vt 0.477083 1.000000
vt 0.426042 1.000000
vt 0.544792 0.916667
vt 0.560417 0.916667
vt 0.560417 1.000000
vt 0.544792 1.000000
vt 0.426042 0.500000
vt 0.477083 0.500000
vt 0.477083 0.750000
vt 0.426042 0.750000
vt 0.544792 0.500000
vt 0.560417 0.500000
vt 0.560417 0.750000
vt 0.544792 0.750000
vt 0.426042 0.416667
vt 0.477083 0.416667
vt 0.544792 0.416667
vt 0.560417 0.416667
vt 0.426042 0.000000
vt 0.477083 0.000000
vt 0.477083 0.250000
vt 0.426042 0.250000
vt 0.544792 0.000000
vt 0.560417 0.000000
vt 0.560417 0.250000
vt 0.544792 0.250000
vt 0.575253 0.916667
vt 0.575253 1.000000
vt 0.575253 0.500000
vt 0.575253 0.750000
vt 0.575253 0.416667
vt 0.575253 0.000000
vt 0.575253 0.250000
vt 0.544792 0.833333
vt 0.477083 0.833333
vt 0.544792 0.333333
vt 0.477083 0.333333
vt 0.575253 0.333333
vt 0.560417 0.333333
vt 0.575253 0.833333
vt 0.560417 0.833333
vt 0.426042 0.333333
vt 0.426042 0.833333
vt 0.708333 0.500000
vt 0.708333 0.750000
vt 0.125000 0.500000
vt 0.208333 0.500000
vt 0.208333 0.750000
vt 0.125000 0.750000
vt 0.375000 0.916667
vt 0.342708 0.416667
vt 0.625000 0.833333
vt 0.616744 0.833333
vt 0.625000 0.333333
vt 0.616744 0.333333
vt 0.384375 0.458333
vt 0.375000 0.833333
vt 0.375000 0.250000
vt 0.375000 0.333333
vt 0.375000 0.000000
vt 0.426042 1.000000
vt 0.426042 0.916667
vt 0.426042 0.750000
vt 0.375000 0.750000
vt 0.375000 0.416667
vt 0.375000 0.916667
vt 0.375000 1.000000
vt 0.426042 0.833333
vt 0.375000 0.833333
vt 0.375000 0.000000
vt 0.426042 0.000000
vt 0.291667 0.750000
vt 0.208333 0.750000
vt 0.125000 0.750000
vt 0.547414 0.450000
vt 0.625000 0.450000
vt 0.625000 0.500000
vt 0.547414 0.500000
vt 0.625000 0.750000
vt 0.547414 0.750000
vt 0.547414 0.950000
vt 0.625000 0.950000
vt 0.625000 1.000000
vt 0.547414 1.000000
vt 0.325000 0.500000
vt 0.375000 0.500000
vt 0.375000 0.750000
vt 0.325000 0.750000
vt 0.825000 0.500000
vt 0.875000 0.500000
vt 0.875000 0.750000
vt 0.825000 0.750000
vt 0.410244 0.950000
vt 0.410244 1.000000
vt 0.410244 0.500000
vt 0.410244 0.750000
vt 0.410244 0.450000
vt 0.410244 0.000000
vt 0.547414 0.000000
vt 0.547414 0.250000
vt 0.410244 0.250000
vt 0.625000 0.250000
vt 0.547414 0.300000
vt 0.410244 0.300000
vt 0.547414 0.350000
vt 0.410244 0.350000
vt 0.547414 0.400000
vt 0.410244 0.400000
vt 0.547414 0.800000
vt 0.410244 0.800000
vt 0.547414 0.850000
vt 0.410244 0.850000
vt 0.547414 0.900000
vt 0.410244 0.900000
vt 0.675000 0.500000
vt 0.675000 0.750000
vt 0.725000 0.500000
vt 0.725000 0.750000
vt 0.775000 0.500000
vt 0.775000 0.750000
vt 0.125000 0.500000
vt 0.175000 0.500000
vt 0.175000 0.750000
vt 0.125000 0.750000
vt 0.375000 0.850000
vt 0.275000 0.500000
vt 0.225000 0.500000
vt 0.275000 0.750000
vt 0.225000 0.750000
vt 0.375000 0.950000
vt 0.625000 0.800000
vt 0.625000 0.850000
vt 0.625000 0.900000
vt 0.625000 0.300000
vt 0.625000 0.350000
vt 0.625000 0.400000
vt 0.375000 0.800000
vt 0.375000 0.900000
vt 0.375000 0.350000
vt 0.375000 0.400000
vt 0.375000 0.250000
vt 0.375000 0.300000
vt 0.375000 0.000000
vt 0.375000 0.450000
vt 0.375000 1.000000
vt 0.547414 0.450000
vt 0.547414 0.500000
vt 0.625000 0.500000
vt 0.625000 0.450000
vt 0.547414 0.750000
vt 0.625000 0.750000
vt 0.547414 0.950000
vt 0.547414 1.000000
vt 0.625000 1.000000
vt 0.625000 0.950000
vt 0.325000 0.500000
vt 0.325000 0.750000
vt 0.375000 0.750000
vt 0.375000 0.500000
vt 0.825000 0.500000
vt 0.825000 0.750000
vt 0.875000 0.750000
vt 0.875000 0.500000
vt 0.410244 0.950000
vt 0.410244 1.000000
vt 0.410244 0.500000
vt 0.410244 0.750000
vt 0.410244 0.450000
vt 0.410244 0.000000
vt 0.410244 0.250000
vt 0.547414 0.250000
vt 0.547414 0.000000
vt 0.625000 0.250000
vt 0.410244 0.300000
vt 0.547414 0.300000
vt 0.410244 0.350000
vt 0.547414 0.350000
vt 0.410244 0.400000
vt 0.547414 0.400000
vt 0.410244 0.800000
vt 0.547414 0.800000
vt 0.410244 0.850000
vt 0.547414 0.850000
vt 0.410244 0.900000
vt 0.547414 0.900000
vt 0.675000 0.750000
vt 0.675000 0.500000
vt 0.725000 0.750000
vt 0.725000 0.500000
vt 0.775000 0.750000
vt 0.775000 0.500000
vt 0.125000 0.500000
vt 0.125000 0.750000
vt 0.175000 0.750000
vt 0.175000 0.500000
vt 0.275000 0.500000
vt 0.375000 0.850000
vt 0.225000 0.500000
vt 0.225000 0.750000
vt 0.275000 0.750000
vt 0.375000 0.950000
vt 0.625000 0.800000
vt 0.625000 0.850000
vt 0.625000 0.900000
vt 0.625000 0.300000
vt 0.625000 0.350000
vt 0.625000 0.400000
vt 0.375000 0.800000
vt 0.375000 0.900000
vt 0.375000 0.350000
vt 0.375000 0.400000
vt 0.375000 0.250000
vt 0.375000 0.300000
vt 0.375000 0.000000
vt 0.375000 0.450000
vt 0.375000 1.000000
vn -0.8211 0.5708 0.0000
vn -0.0000 0.3962 -0.9181
vn 0.8211 0.5708 0.0000
vn 0.0000 0.3962 0.9181
vn -0.0000 -1.0000 0.0000
vn 0.0000 1.0000 0.0000
vn 0.0000 0.0000 1.0000
vn 0.0000 0.2217 0.9751
vn 1.0000 0.0000 0.0000
vn 0.5271 0.8497 -0.0170
vn -0.0000 0.0000 -1.0000
vn -0.0000 0.2217 -0.9751
vn -1.0000 0.0000 0.0000
vn -0.5271 0.8497 -0.0170
vn 0.0000 -0.2329 0.9725
vn 0.5075 -0.8615 -0.0163
vn -0.0000 -0.2329 -0.9725
vn -0.5075 -0.8615 -0.0163
usemtl None
s off
f 49/1/1 2/2/1 4/3/1 50/4/1
f 56/5/2 28/6/2 8/7/2 51/8/2
f 51/8/3 8/7/3 6/9/3 52/10/3
f 54/11/4 32/12/4 2/13/4 49/14/4
f 25/15/5 7/16/5 5/17/5 30/18/5
f 27/19/6 4/20/6 2/21/6 32/22/6
f 60/23/7 34/24/7 9/25/7 58/26/7
f 48/27/8 36/28/8 10/29/8 21/30/8
f 61/31/9 14/32/9 16/33/9 62/34/9
f 23/35/10 13/36/10 15/37/10 24/38/10
f 63/39/11 38/40/11 14/32/11 61/31/11
f 46/41/12 40/42/12 13/36/12 23/35/12
f 58/43/13 9/44/13 12/45/13 57/46/13
f 21/47/14 10/48/14 11/49/14 22/50/14
f 36/28/15 42/51/15 17/52/15 10/29/15
f 13/36/16 19/53/16 20/54/16 15/37/16
f 40/42/17 44/55/17 19/53/17 13/36/17
f 10/48/18 17/56/18 18/57/18 11/49/18
f 9/44/13 21/47/13 22/50/13 12/45/13
f 38/40/11 46/41/11 23/35/11 14/32/11
f 14/32/9 23/35/9 24/38/9 16/33/9
f 34/24/7 48/27/7 21/30/7 9/25/7
f 16/33/7 24/38/7 47/58/7 33/59/7
f 33/59/7 47/58/7 48/27/7 34/24/7
f 12/45/11 22/50/11 45/60/11 37/61/11
f 37/61/11 45/60/11 46/41/11 38/40/11
f 11/49/17 18/57/17 43/62/17 39/63/17
f 39/63/17 43/62/17 44/55/17 40/42/17
f 15/37/15 20/54/15 41/64/15 35/65/15
f 35/65/15 41/64/15 42/51/15 36/28/15
f 22/50/12 11/49/12 39/63/12 45/60/12
f 45/60/12 39/63/12 40/42/12 46/41/12
f 57/46/11 12/45/11 37/61/11 59/66/11
f 38/40/5 33/59/5 34/24/5 37/61/5
f 24/38/8 15/37/8 35/65/8 47/58/8
f 47/58/8 35/65/8 36/28/8 48/27/8
f 62/34/7 16/33/7 33/59/7 64/67/7
f 8/7/6 28/68/6 31/69/6 6/9/6
f 28/68/6 27/19/6 32/22/6 31/69/6
f 3/70/5 26/71/5 29/72/5 1/73/5
f 60/23/9 29/74/9 26/71/9 59/75/9
f 52/10/4 6/9/4 31/76/4 53/77/4
f 53/77/4 31/76/4 32/12/4 54/11/4
f 50/4/2 4/3/2 27/78/2 55/79/2
f 55/79/2 27/78/2 28/6/2 56/5/2
f 64/67/13 63/80/13 25/15/13 30/81/13
f 43/62/11 55/79/11 56/5/11 44/55/11
f 18/57/11 50/4/11 55/79/11 43/62/11
f 41/64/7 53/77/7 54/11/7 42/51/7
f 20/54/7 52/10/7 53/77/7 41/64/7
f 42/51/7 54/11/7 49/14/7 17/52/7
f 19/53/9 51/8/9 52/10/9 20/54/9
f 44/55/11 56/5/11 51/8/11 19/53/11
f 17/56/13 49/1/13 50/4/13 18/57/13
f 34/24/9 60/23/9 59/75/9 37/61/9
f 3/82/11 57/46/11 59/66/11 26/83/11
f 1/84/13 58/43/13 57/46/13 3/82/13
f 60/23/6 58/26/6 72/85/6 71/86/6
f 33/59/13 38/40/13 63/80/13 64/67/13
f 5/17/9 62/34/9 65/87/9 66/88/9
f 25/89/11 63/39/11 61/31/11 7/16/11
f 7/16/9 61/31/9 62/34/9 5/17/9
f 69/90/7 71/86/7 72/85/7 68/91/7
f 66/88/7 65/87/7 70/92/7 67/93/7
f 64/67/13 30/81/13 67/93/13 70/92/13
f 58/43/13 1/84/13 68/94/13 72/95/13
f 30/18/5 5/17/5 66/88/5 67/96/5
f 29/74/9 60/23/9 71/86/9 69/90/9
f 1/73/5 29/72/5 69/97/5 68/98/5
f 62/34/6 64/67/6 70/92/6 65/87/6
f 108/99/11 92/100/11 80/101/11 83/102/11
f 83/102/9 80/101/9 78/103/9 84/104/9
f 104/105/7 100/106/7 74/107/7 81/108/7
f 85/109/5 79/110/5 77/111/5 96/112/5
f 89/113/6 76/114/6 74/115/6 100/116/6
f 120/117/7 104/105/7 81/108/7 112/118/7
f 110/119/9 83/102/9 84/104/9 111/120/9
f 116/121/11 108/99/11 83/102/11 110/119/11
f 112/122/13 81/123/13 82/124/13 109/125/13
f 81/123/13 74/115/13 76/126/13 82/124/13
f 109/125/11 82/124/11 105/127/11 113/128/11
f 113/128/11 105/127/11 106/129/11 114/130/11
f 114/130/11 106/129/11 107/131/11 115/132/11
f 115/132/11 107/131/11 108/99/11 116/121/11
f 111/120/7 84/104/7 101/133/7 117/134/7
f 117/134/7 101/133/7 102/135/7 118/136/7
f 118/136/7 102/135/7 103/137/7 119/138/7
f 119/138/7 103/137/7 104/105/7 120/117/7
f 80/101/6 92/139/6 97/140/6 78/103/6
f 92/139/6 91/141/6 98/142/6 97/140/6
f 91/141/6 90/143/6 99/144/6 98/142/6
f 90/143/6 89/113/6 100/116/6 99/144/6
f 75/145/5 88/146/5 93/147/5 73/148/5
f 118/136/9 95/149/9 86/150/9 115/132/9
f 87/151/5 86/150/5 95/152/5 94/153/5
f 120/117/9 93/154/9 88/146/9 113/128/9
f 84/104/7 78/103/7 97/155/7 101/133/7
f 101/133/7 97/155/7 98/156/7 102/135/7
f 102/135/7 98/156/7 99/157/7 103/137/7
f 103/137/7 99/157/7 100/106/7 104/105/7
f 82/124/11 76/126/11 89/158/11 105/127/11
f 105/127/11 89/158/11 90/159/11 106/129/11
f 106/129/11 90/159/11 91/160/11 107/131/11
f 107/131/11 91/160/11 92/100/11 108/99/11
f 117/134/13 116/121/13 85/109/13 96/161/13
f 95/149/7 118/136/7 119/138/7 94/162/7
f 115/132/5 116/121/5 117/134/5 118/136/5
f 77/111/7 111/120/7 117/134/7 96/161/7
f 113/128/5 114/130/5 119/138/5 120/117/5
f 87/163/11 114/130/11 115/132/11 86/164/11
f 119/138/13 114/130/13 87/151/13 94/162/13
f 75/165/11 109/125/11 113/128/11 88/166/11
f 73/167/13 112/122/13 109/125/13 75/165/13
f 85/168/11 116/121/11 110/119/11 79/110/11
f 79/110/9 110/119/9 111/120/9 77/111/9
f 93/154/7 120/117/7 112/118/7 73/169/7
f 156/170/11 131/171/11 128/172/11 140/173/11
f 131/171/13 132/174/13 126/175/13 128/172/13
f 152/176/7 129/177/7 122/178/7 148/179/7
f 133/180/5 144/181/5 125/182/5 127/183/5
f 137/184/6 148/185/6 122/186/6 124/187/6
f 168/188/7 160/189/7 129/177/7 152/176/7
f 158/190/13 159/191/13 132/174/13 131/171/13
f 164/192/11 158/190/11 131/171/11 156/170/11
f 160/193/9 157/194/9 130/195/9 129/196/9
f 129/196/9 130/195/9 124/197/9 122/186/9
f 157/194/11 161/198/11 153/199/11 130/195/11
f 161/198/11 162/200/11 154/201/11 153/199/11
f 162/200/11 163/202/11 155/203/11 154/201/11
f 163/202/11 164/192/11 156/170/11 155/203/11
f 159/191/7 165/204/7 149/205/7 132/174/7
f 165/204/7 166/206/7 150/207/7 149/205/7
f 166/206/7 167/208/7 151/209/7 150/207/7
f 167/208/7 168/188/7 152/176/7 151/209/7
f 128/172/6 126/175/6 145/210/6 140/211/6
f 140/211/6 145/210/6 146/212/6 139/213/6
f 139/213/6 146/212/6 147/214/6 138/215/6
f 138/215/6 147/214/6 148/185/6 137/184/6
f 123/216/5 121/217/5 141/218/5 136/219/5
f 166/206/13 163/202/13 134/220/13 143/221/13
f 135/222/5 142/223/5 143/224/5 134/220/5
f 168/188/13 161/198/13 136/219/13 141/225/13
f 132/174/7 149/205/7 145/226/7 126/175/7
f 149/205/7 150/207/7 146/227/7 145/226/7
f 150/207/7 151/209/7 147/228/7 146/227/7
f 151/209/7 152/176/7 148/179/7 147/228/7
f 130/195/11 153/199/11 137/229/11 124/197/11
f 153/199/11 154/201/11 138/230/11 137/229/11
f 154/201/11 155/203/11 139/231/11 138/230/11
f 155/203/11 156/170/11 140/173/11 139/231/11
f 165/204/9 144/232/9 133/180/9 164/192/9
f 143/221/7 142/233/7 167/208/7 166/206/7
f 163/202/5 166/206/5 165/204/5 164/192/5
f 125/182/7 144/232/7 165/204/7 159/191/7
f 161/198/5 168/188/5 167/208/5 162/200/5
f 135/234/11 134/235/11 163/202/11 162/200/11
f 167/208/9 142/233/9 135/222/9 162/200/9
f 123/236/11 136/237/11 161/198/11 157/194/11
f 121/238/9 123/236/9 157/194/9 160/193/9
f 133/239/11 127/183/11 158/190/11 164/192/11
f 127/183/13 125/182/13 159/191/13 158/190/13
f 141/225/7 121/240/7 160/189/7 168/188/7
